# MagicaVoxel @ Ephtracy

# group
o 

# material
mtllib new windmill.mtl
usemtl palette

# normals
vn -1 0 0
vn 1 0 0
vn 0 0 1
vn 0 0 -1
vn 0 -1 0
vn 0 1 0

# texcoords
vt 0.310547 0.5
vt 0.337891 0.5
vt 0.923828 0.5
vt 0.962891 0.5
vt 0.986328 0.5
vt 0.990234 0.5

# verts
v -2 0 -0.9
v -2 0 -1.2
v -2 0.1 -0.9
v -2 0.1 -1.2
v -1.8 0 -0.7
v -1.8 0 -0.9
v -1.8 0 -1.2
v -1.8 0 -1.4
v -1.8 0.1 -0.7
v -1.8 0.1 -0.9
v -1.8 0.1 -1.2
v -1.8 0.1 -1.4
v -0.7 0 0.6
v -0.7 0 -0.7
v -0.7 0 -1.4
v -0.7 0 -2.6
v -0.7 0.1 0.6
v -0.7 0.1 -0.7
v -0.7 0.1 -1.4
v -0.7 0.1 -2.6
v -0.6 0.1 -0.8
v -0.6 0.1 -0.9
v -0.6 0.1 -1.2
v -0.6 0.1 -1.3
v -0.6 0.2 -0.8
v -0.6 0.2 -1.3
v -0.5 0 0.8
v -0.5 0 0.6
v -0.5 0 -2.6
v -0.5 0 -2.7
v -0.5 0 -2.8
v -0.5 0.1 0.8
v -0.5 0.1 0.6
v -0.5 0.1 -2.6
v -0.5 0.1 -2.7
v -0.5 0.1 -2.8
v -0.5 0.2 -0.9
v -0.5 0.2 -1.2
v -0.5 0.5 -0.9
v -0.5 0.5 -1.2
v -0.2 0 0.8
v -0.2 0 0.6
v -0.2 0 -2.6
v -0.2 0 -2.7
v -0.2 0 -2.8
v -0.2 0.1 0.8
v -0.2 0.1 0.6
v -0.2 0.1 -2.6
v -0.2 0.1 -2.7
v -0.2 0.1 -2.8
v -0.2 0.2 -0.9
v -0.2 0.2 -1.2
v -0.2 0.5 -0.9
v -0.2 0.5 -1.2
v -0.0999999 0.1 -0.8
v -0.0999999 0.1 -0.9
v -0.0999999 0.1 -1.2
v -0.0999999 0.1 -1.3
v -0.0999999 0.2 -0.8
v -0.0999999 0.2 -1.3
v 2.38419e-007 0 0.6
v 2.38419e-007 0 -0.7
v 2.38419e-007 0 -1.4
v 2.38419e-007 0 -2.6
v 2.38419e-007 0.1 0.6
v 2.38419e-007 0.1 -0.7
v 2.38419e-007 0.1 -1.4
v 2.38419e-007 0.1 -2.6
v 1.1 0 -0.7
v 1.1 0 -0.9
v 1.1 0 -1.2
v 1.1 0 -1.4
v 1.1 0.1 -0.7
v 1.1 0.1 -0.9
v 1.1 0.1 -1.2
v 1.1 0.1 -1.4
v 1.3 0 -0.9
v 1.3 0 -1.2
v 1.3 0.1 -0.9
v 1.3 0.1 -1.2
v -0.5 0 0.8
v -0.5 0.1 0.8
v -0.2 0 0.8
v -0.2 0.1 0.8
v -0.7 0 0.6
v -0.7 0.1 0.6
v -0.5 0 0.6
v -0.5 0.1 0.6
v -0.2 0 0.6
v -0.2 0.1 0.6
v 2.38419e-007 0 0.6
v 2.38419e-007 0.1 0.6
v -1.8 0 -0.7
v -1.8 0.1 -0.7
v -0.7 0 -0.7
v -0.7 0.1 -0.7
v 2.38419e-007 0 -0.7
v 2.38419e-007 0.1 -0.7
v 1.1 0 -0.7
v 1.1 0.1 -0.7
v -0.6 0.1 -0.8
v -0.6 0.2 -0.8
v -0.5 0.1 -0.8
v -0.2 0.1 -0.8
v -0.0999999 0.1 -0.8
v -0.0999999 0.2 -0.8
v -2 0 -0.9
v -2 0.1 -0.9
v -1.8 0 -0.9
v -1.8 0.1 -0.9
v -0.5 0.2 -0.9
v -0.5 0.5 -0.9
v -0.2 0.2 -0.9
v -0.2 0.5 -0.9
v 1.1 0 -0.9
v 1.1 0.1 -0.9
v 1.3 0 -0.9
v 1.3 0.1 -0.9
v -2 0 -1.2
v -2 0.1 -1.2
v -1.8 0 -1.2
v -1.8 0.1 -1.2
v -0.5 0.2 -1.2
v -0.5 0.5 -1.2
v -0.2 0.2 -1.2
v -0.2 0.5 -1.2
v 1.1 0 -1.2
v 1.1 0.1 -1.2
v 1.3 0 -1.2
v 1.3 0.1 -1.2
v -0.6 0.1 -1.3
v -0.6 0.2 -1.3
v -0.5 0.1 -1.3
v -0.2 0.1 -1.3
v -0.0999999 0.1 -1.3
v -0.0999999 0.2 -1.3
v -1.8 0 -1.4
v -1.8 0.1 -1.4
v -0.7 0 -1.4
v -0.7 0.1 -1.4
v 2.38419e-007 0 -1.4
v 2.38419e-007 0.1 -1.4
v 1.1 0 -1.4
v 1.1 0.1 -1.4
v -0.7 0 -2.6
v -0.7 0.1 -2.6
v -0.5 0 -2.6
v -0.5 0.1 -2.6
v -0.2 0 -2.6
v -0.2 0.1 -2.6
v 2.38419e-007 0 -2.6
v 2.38419e-007 0.1 -2.6
v -0.5 0 -2.8
v -0.5 0.1 -2.8
v -0.2 0 -2.8
v -0.2 0.1 -2.8
v -0.5 0 0.8
v -0.2 0 0.8
v -0.7 0 0.6
v -0.5 0 0.6
v -0.2 0 0.6
v 2.38419e-007 0 0.6
v -0.5 0 0.5
v -0.2 0 0.5
v -0.5 0 0.3
v -0.2 0 0.3
v -0.5 0 0.2
v -0.2 0 0.2
v -0.5 0 5.96046e-008
v -0.2 0 5.96046e-008
v -0.5 0 -0.0999999
v -0.2 0 -0.0999999
v -0.5 0 -0.3
v -0.2 0 -0.3
v -0.5 0 -0.4
v -0.2 0 -0.4
v -0.5 0 -0.6
v -0.2 0 -0.6
v -1.8 0 -0.7
v -0.7 0 -0.7
v -0.5 0 -0.7
v -0.2 0 -0.7
v 2.38419e-007 0 -0.7
v 1.1 0 -0.7
v -0.6 0 -0.8
v -0.5 0 -0.8
v -0.2 0 -0.8
v -0.0999999 0 -0.8
v -2 0 -0.9
v -1.8 0 -0.9
v -1.7 0 -0.9
v -1.5 0 -0.9
v -1.4 0 -0.9
v -1.2 0 -0.9
v -1.1 0 -0.9
v -0.9 0 -0.9
v -0.8 0 -0.9
v -0.7 0 -0.9
v -0.6 0 -0.9
v -0.5 0 -0.9
v -0.4 0 -0.9
v -0.3 0 -0.9
v -0.2 0 -0.9
v -0.0999999 0 -0.9
v 2.38419e-007 0 -0.9
v 0.1 0 -0.9
v 0.3 0 -0.9
v 0.4 0 -0.9
v 0.6 0 -0.9
v 0.7 0 -0.9
v 0.9 0 -0.9
v 1 0 -0.9
v 1.1 0 -0.9
v 1.3 0 -0.9
v -0.5 0 -1
v -0.4 0 -1
v -0.3 0 -1
v -0.2 0 -1
v -0.5 0 -1.1
v -0.4 0 -1.1
v -0.3 0 -1.1
v -0.2 0 -1.1
v -2 0 -1.2
v -1.8 0 -1.2
v -1.7 0 -1.2
v -1.5 0 -1.2
v -1.4 0 -1.2
v -1.2 0 -1.2
v -1.1 0 -1.2
v -0.9 0 -1.2
v -0.8 0 -1.2
v -0.7 0 -1.2
v -0.6 0 -1.2
v -0.5 0 -1.2
v -0.4 0 -1.2
v -0.3 0 -1.2
v -0.2 0 -1.2
v -0.0999999 0 -1.2
v 2.38419e-007 0 -1.2
v 0.1 0 -1.2
v 0.3 0 -1.2
v 0.4 0 -1.2
v 0.6 0 -1.2
v 0.7 0 -1.2
v 0.9 0 -1.2
v 1 0 -1.2
v 1.1 0 -1.2
v 1.3 0 -1.2
v -0.6 0 -1.3
v -0.5 0 -1.3
v -0.2 0 -1.3
v -0.0999999 0 -1.3
v -1.8 0 -1.4
v -0.7 0 -1.4
v -0.5 0 -1.4
v -0.2 0 -1.4
v 2.38419e-007 0 -1.4
v 1.1 0 -1.4
v -0.5 0 -1.5
v -0.2 0 -1.5
v -0.5 0 -1.7
v -0.2 0 -1.7
v -0.5 0 -1.8
v -0.2 0 -1.8
v -0.5 0 -2
v -0.2 0 -2
v -0.5 0 -2.1
v -0.2 0 -2.1
v -0.5 0 -2.3
v -0.2 0 -2.3
v -0.5 0 -2.4
v -0.2 0 -2.4
v -0.7 0 -2.6
v -0.5 0 -2.6
v -0.2 0 -2.6
v 2.38419e-007 0 -2.6
v -0.5 0 -2.7
v -0.2 0 -2.7
v -0.5 0 -2.8
v -0.2 0 -2.8
v -0.5 0.1 0.8
v -0.2 0.1 0.8
v -0.7 0.1 0.6
v -0.5 0.1 0.6
v -0.2 0.1 0.6
v 2.38419e-007 0.1 0.6
v -0.5 0.1 0.5
v -0.2 0.1 0.5
v -0.5 0.1 0.3
v -0.2 0.1 0.3
v -0.5 0.1 0.2
v -0.2 0.1 0.2
v -0.5 0.1 5.96046e-008
v -0.2 0.1 5.96046e-008
v -0.5 0.1 -0.0999999
v -0.2 0.1 -0.0999999
v -0.5 0.1 -0.3
v -0.2 0.1 -0.3
v -0.5 0.1 -0.4
v -0.2 0.1 -0.4
v -0.5 0.1 -0.6
v -0.2 0.1 -0.6
v -1.8 0.1 -0.7
v -0.7 0.1 -0.7
v -0.5 0.1 -0.7
v -0.2 0.1 -0.7
v 2.38419e-007 0.1 -0.7
v 1.1 0.1 -0.7
v -0.6 0.1 -0.8
v -0.5 0.1 -0.8
v -0.2 0.1 -0.8
v -0.0999999 0.1 -0.8
v -2 0.1 -0.9
v -1.8 0.1 -0.9
v -1.7 0.1 -0.9
v -1.5 0.1 -0.9
v -1.4 0.1 -0.9
v -1.2 0.1 -0.9
v -1.1 0.1 -0.9
v -0.9 0.1 -0.9
v -0.8 0.1 -0.9
v -0.7 0.1 -0.9
v -0.6 0.1 -0.9
v -0.0999999 0.1 -0.9
v 2.38419e-007 0.1 -0.9
v 0.1 0.1 -0.9
v 0.3 0.1 -0.9
v 0.4 0.1 -0.9
v 0.6 0.1 -0.9
v 0.7 0.1 -0.9
v 0.9 0.1 -0.9
v 1 0.1 -0.9
v 1.1 0.1 -0.9
v 1.3 0.1 -0.9
v -2 0.1 -1.2
v -1.8 0.1 -1.2
v -1.7 0.1 -1.2
v -1.5 0.1 -1.2
v -1.4 0.1 -1.2
v -1.2 0.1 -1.2
v -1.1 0.1 -1.2
v -0.9 0.1 -1.2
v -0.8 0.1 -1.2
v -0.7 0.1 -1.2
v -0.6 0.1 -1.2
v -0.0999999 0.1 -1.2
v 2.38419e-007 0.1 -1.2
v 0.1 0.1 -1.2
v 0.3 0.1 -1.2
v 0.4 0.1 -1.2
v 0.6 0.1 -1.2
v 0.7 0.1 -1.2
v 0.9 0.1 -1.2
v 1 0.1 -1.2
v 1.1 0.1 -1.2
v 1.3 0.1 -1.2
v -0.6 0.1 -1.3
v -0.5 0.1 -1.3
v -0.2 0.1 -1.3
v -0.0999999 0.1 -1.3
v -1.8 0.1 -1.4
v -0.7 0.1 -1.4
v -0.5 0.1 -1.4
v -0.2 0.1 -1.4
v 2.38419e-007 0.1 -1.4
v 1.1 0.1 -1.4
v -0.5 0.1 -1.5
v -0.2 0.1 -1.5
v -0.5 0.1 -1.7
v -0.2 0.1 -1.7
v -0.5 0.1 -1.8
v -0.2 0.1 -1.8
v -0.5 0.1 -2
v -0.2 0.1 -2
v -0.5 0.1 -2.1
v -0.2 0.1 -2.1
v -0.5 0.1 -2.3
v -0.2 0.1 -2.3
v -0.5 0.1 -2.4
v -0.2 0.1 -2.4
v -0.7 0.1 -2.6
v -0.5 0.1 -2.6
v -0.2 0.1 -2.6
v 2.38419e-007 0.1 -2.6
v -0.5 0.1 -2.7
v -0.2 0.1 -2.7
v -0.5 0.1 -2.8
v -0.2 0.1 -2.8
v -0.6 0.2 -0.8
v -0.0999999 0.2 -0.8
v -0.5 0.2 -0.9
v -0.2 0.2 -0.9
v -0.5 0.2 -1.2
v -0.2 0.2 -1.2
v -0.6 0.2 -1.3
v -0.0999999 0.2 -1.3
v -0.5 0.5 -0.9
v -0.2 0.5 -0.9
v -0.5 0.5 -1.2
v -0.2 0.5 -1.2

# faces
f 3/1/1 2/1/1 1/1/1
f 4/1/1 2/1/1 3/1/1
f 9/5/1 6/5/1 5/5/1
f 10/5/1 6/5/1 9/5/1
f 11/5/1 8/5/1 7/5/1
f 12/5/1 8/5/1 11/5/1
f 17/5/1 14/5/1 13/5/1
f 18/5/1 14/5/1 17/5/1
f 19/5/1 16/5/1 15/5/1
f 20/5/1 16/5/1 19/5/1
f 25/1/1 22/1/1 21/1/1
f 25/1/1 24/1/1 23/1/1
f 25/1/1 23/1/1 22/1/1
f 26/1/1 24/1/1 25/1/1
f 32/1/1 28/1/1 27/1/1
f 33/1/1 28/1/1 32/1/1
f 34/6/1 30/6/1 29/6/1
f 35/1/1 31/1/1 30/1/1
f 35/6/1 30/6/1 34/6/1
f 36/1/1 31/1/1 35/1/1
f 39/1/1 38/1/1 37/1/1
f 40/1/1 38/1/1 39/1/1
f 41/1/2 42/1/2 46/1/2
f 46/1/2 42/1/2 47/1/2
f 43/6/2 44/6/2 48/6/2
f 44/1/2 45/1/2 49/1/2
f 48/6/2 44/6/2 49/6/2
f 49/1/2 45/1/2 50/1/2
f 51/1/2 52/1/2 53/1/2
f 53/1/2 52/1/2 54/1/2
f 55/1/2 56/1/2 59/1/2
f 57/1/2 58/1/2 59/1/2
f 56/1/2 57/1/2 59/1/2
f 59/1/2 58/1/2 60/1/2
f 61/5/2 62/5/2 65/5/2
f 65/5/2 62/5/2 66/5/2
f 63/5/2 64/5/2 67/5/2
f 67/5/2 64/5/2 68/5/2
f 69/5/2 70/5/2 73/5/2
f 73/5/2 70/5/2 74/5/2
f 71/5/2 72/5/2 75/5/2
f 75/5/2 72/5/2 76/5/2
f 77/1/2 78/1/2 79/1/2
f 79/1/2 78/1/2 80/1/2
f 83/1/3 82/1/3 81/1/3
f 84/1/3 82/1/3 83/1/3
f 87/5/3 86/5/3 85/5/3
f 88/5/3 86/5/3 87/5/3
f 91/5/3 90/5/3 89/5/3
f 92/5/3 90/5/3 91/5/3
f 95/5/3 94/5/3 93/5/3
f 96/5/3 94/5/3 95/5/3
f 99/5/3 98/5/3 97/5/3
f 100/5/3 98/5/3 99/5/3
f 103/1/3 102/1/3 101/1/3
f 104/1/3 102/1/3 103/1/3
f 105/1/3 102/1/3 104/1/3
f 106/1/3 102/1/3 105/1/3
f 109/1/3 108/1/3 107/1/3
f 110/1/3 108/1/3 109/1/3
f 113/1/3 112/1/3 111/1/3
f 114/1/3 112/1/3 113/1/3
f 117/1/3 116/1/3 115/1/3
f 118/1/3 116/1/3 117/1/3
f 119/1/4 120/1/4 121/1/4
f 121/1/4 120/1/4 122/1/4
f 123/1/4 124/1/4 125/1/4
f 125/1/4 124/1/4 126/1/4
f 127/1/4 128/1/4 129/1/4
f 129/1/4 128/1/4 130/1/4
f 131/1/4 132/1/4 133/1/4
f 133/1/4 132/1/4 134/1/4
f 134/1/4 132/1/4 135/1/4
f 135/1/4 132/1/4 136/1/4
f 137/5/4 138/5/4 139/5/4
f 139/5/4 138/5/4 140/5/4
f 141/5/4 142/5/4 143/5/4
f 143/5/4 142/5/4 144/5/4
f 145/5/4 146/5/4 147/5/4
f 147/5/4 146/5/4 148/5/4
f 149/5/4 150/5/4 151/5/4
f 151/5/4 150/5/4 152/5/4
f 153/1/4 154/1/4 155/1/4
f 155/1/4 154/1/4 156/1/4
f 160/1/5 158/1/5 157/1/5
f 161/1/5 158/1/5 160/1/5
f 163/5/5 160/5/5 159/5/5
f 163/6/5 161/6/5 160/6/5
f 164/5/5 162/5/5 161/5/5
f 164/6/5 161/6/5 163/6/5
f 165/5/5 163/5/5 159/5/5
f 165/1/5 164/1/5 163/1/5
f 166/5/5 162/5/5 164/5/5
f 166/1/5 164/1/5 165/1/5
f 167/5/5 165/5/5 159/5/5
f 167/6/5 166/6/5 165/6/5
f 168/5/5 162/5/5 166/5/5
f 168/6/5 166/6/5 167/6/5
f 169/5/5 167/5/5 159/5/5
f 169/1/5 168/1/5 167/1/5
f 170/5/5 162/5/5 168/5/5
f 170/1/5 168/1/5 169/1/5
f 171/5/5 169/5/5 159/5/5
f 171/6/5 170/6/5 169/6/5
f 172/5/5 162/5/5 170/5/5
f 172/6/5 170/6/5 171/6/5
f 173/5/5 171/5/5 159/5/5
f 173/1/5 172/1/5 171/1/5
f 174/5/5 162/5/5 172/5/5
f 174/1/5 172/1/5 173/1/5
f 175/5/5 173/5/5 159/5/5
f 175/6/5 174/6/5 173/6/5
f 176/5/5 162/5/5 174/5/5
f 176/6/5 174/6/5 175/6/5
f 177/5/5 175/5/5 159/5/5
f 177/1/5 176/1/5 175/1/5
f 178/5/5 162/5/5 176/5/5
f 178/1/5 176/1/5 177/1/5
f 180/5/5 177/5/5 159/5/5
f 181/6/5 178/6/5 177/6/5
f 181/5/5 177/5/5 180/5/5
f 182/5/5 162/5/5 178/5/5
f 182/6/5 178/6/5 181/6/5
f 183/5/5 162/5/5 182/5/5
f 185/5/5 181/5/5 180/5/5
f 185/5/5 180/5/5 179/5/5
f 186/3/5 182/3/5 181/3/5
f 186/5/5 181/5/5 185/5/5
f 187/5/5 184/5/5 183/5/5
f 187/3/5 182/3/5 186/3/5
f 187/5/5 183/5/5 182/5/5
f 188/5/5 184/5/5 187/5/5
f 190/5/5 185/5/5 179/5/5
f 191/5/5 185/5/5 190/5/5
f 192/5/5 185/5/5 191/5/5
f 193/5/5 185/5/5 192/5/5
f 194/5/5 185/5/5 193/5/5
f 195/5/5 185/5/5 194/5/5
f 196/5/5 185/5/5 195/5/5
f 197/5/5 185/5/5 196/5/5
f 198/5/5 185/5/5 197/5/5
f 199/2/5 186/2/5 185/2/5
f 199/5/5 185/5/5 198/5/5
f 200/4/5 187/4/5 186/4/5
f 200/2/5 186/2/5 199/2/5
f 201/4/5 187/4/5 200/4/5
f 202/4/5 187/4/5 201/4/5
f 203/2/5 188/2/5 187/2/5
f 203/4/5 187/4/5 202/4/5
f 204/5/5 184/5/5 188/5/5
f 204/2/5 188/2/5 203/2/5
f 205/5/5 184/5/5 204/5/5
f 206/5/5 184/5/5 205/5/5
f 207/5/5 184/5/5 206/5/5
f 208/5/5 184/5/5 207/5/5
f 209/5/5 184/5/5 208/5/5
f 210/5/5 184/5/5 209/5/5
f 211/5/5 184/5/5 210/5/5
f 212/5/5 184/5/5 211/5/5
f 213/5/5 184/5/5 212/5/5
f 215/4/5 200/4/5 199/4/5
f 215/2/5 201/2/5 200/2/5
f 216/4/5 202/4/5 201/4/5
f 216/2/5 201/2/5 215/2/5
f 217/2/5 203/2/5 202/2/5
f 217/4/5 202/4/5 216/4/5
f 218/4/5 204/4/5 203/4/5
f 218/2/5 203/2/5 217/2/5
f 219/4/5 216/4/5 215/4/5
f 219/4/5 215/4/5 199/4/5
f 220/2/5 217/2/5 216/2/5
f 220/4/5 216/4/5 219/4/5
f 221/4/5 218/4/5 217/4/5
f 221/2/5 217/2/5 220/2/5
f 222/4/5 204/4/5 218/4/5
f 222/4/5 218/4/5 221/4/5
f 223/1/5 190/1/5 189/1/5
f 224/6/5 191/6/5 190/6/5
f 224/1/5 190/1/5 223/1/5
f 225/1/5 192/1/5 191/1/5
f 225/6/5 191/6/5 224/6/5
f 226/6/5 193/6/5 192/6/5
f 226/1/5 192/1/5 225/1/5
f 227/1/5 194/1/5 193/1/5
f 227/6/5 193/6/5 226/6/5
f 228/6/5 195/6/5 194/6/5
f 228/1/5 194/1/5 227/1/5
f 229/1/5 196/1/5 195/1/5
f 229/6/5 195/6/5 228/6/5
f 230/6/5 197/6/5 196/6/5
f 230/1/5 196/1/5 229/1/5
f 231/1/5 198/1/5 197/1/5
f 231/6/5 197/6/5 230/6/5
f 232/3/5 199/3/5 198/3/5
f 232/1/5 198/1/5 231/1/5
f 233/4/5 219/4/5 199/4/5
f 233/3/5 199/3/5 232/3/5
f 234/2/5 220/2/5 219/2/5
f 234/4/5 219/4/5 233/4/5
f 235/4/5 221/4/5 220/4/5
f 235/2/5 220/2/5 234/2/5
f 236/2/5 222/2/5 221/2/5
f 236/4/5 221/4/5 235/4/5
f 237/4/5 204/4/5 222/4/5
f 237/2/5 222/2/5 236/2/5
f 238/3/5 205/3/5 204/3/5
f 238/4/5 204/4/5 237/4/5
f 239/6/5 206/6/5 205/6/5
f 239/3/5 205/3/5 238/3/5
f 240/1/5 207/1/5 206/1/5
f 240/6/5 206/6/5 239/6/5
f 241/6/5 208/6/5 207/6/5
f 241/1/5 207/1/5 240/1/5
f 242/1/5 209/1/5 208/1/5
f 242/6/5 208/6/5 241/6/5
f 243/6/5 210/6/5 209/6/5
f 243/1/5 209/1/5 242/1/5
f 244/1/5 211/1/5 210/1/5
f 244/6/5 210/6/5 243/6/5
f 245/6/5 212/6/5 211/6/5
f 245/1/5 211/1/5 244/1/5
f 246/1/5 214/1/5 213/1/5
f 246/6/5 212/6/5 245/6/5
f 246/1/5 213/1/5 212/1/5
f 247/1/5 214/1/5 246/1/5
f 248/1/5 214/1/5 247/1/5
f 249/5/5 230/5/5 229/5/5
f 249/2/5 234/2/5 233/2/5
f 249/5/5 231/5/5 230/5/5
f 249/5/5 233/5/5 232/5/5
f 249/5/5 225/5/5 224/5/5
f 249/5/5 226/5/5 225/5/5
f 249/5/5 227/5/5 226/5/5
f 249/5/5 228/5/5 227/5/5
f 249/5/5 229/5/5 228/5/5
f 249/5/5 232/5/5 231/5/5
f 250/4/5 236/4/5 235/4/5
f 250/2/5 234/2/5 249/2/5
f 250/4/5 235/4/5 234/4/5
f 250/4/5 237/4/5 236/4/5
f 251/2/5 238/2/5 237/2/5
f 251/4/5 237/4/5 250/4/5
f 252/5/5 247/5/5 246/5/5
f 252/2/5 238/2/5 251/2/5
f 252/5/5 246/5/5 245/5/5
f 252/5/5 245/5/5 244/5/5
f 252/5/5 244/5/5 243/5/5
f 252/5/5 239/5/5 238/5/5
f 252/5/5 240/5/5 239/5/5
f 252/5/5 241/5/5 240/5/5
f 252/5/5 242/5/5 241/5/5
f 252/5/5 243/5/5 242/5/5
f 253/5/5 250/5/5 249/5/5
f 253/5/5 249/5/5 224/5/5
f 254/5/5 250/5/5 253/5/5
f 255/3/5 251/3/5 250/3/5
f 255/5/5 250/5/5 254/5/5
f 256/5/5 252/5/5 251/5/5
f 256/3/5 251/3/5 255/3/5
f 257/5/5 247/5/5 252/5/5
f 257/5/5 252/5/5 256/5/5
f 258/5/5 247/5/5 257/5/5
f 259/6/5 256/6/5 255/6/5
f 259/5/5 255/5/5 254/5/5
f 260/5/5 257/5/5 256/5/5
f 260/6/5 256/6/5 259/6/5
f 261/5/5 259/5/5 254/5/5
f 261/1/5 260/1/5 259/1/5
f 262/5/5 257/5/5 260/5/5
f 262/1/5 260/1/5 261/1/5
f 263/5/5 261/5/5 254/5/5
f 263/6/5 262/6/5 261/6/5
f 264/5/5 257/5/5 262/5/5
f 264/6/5 262/6/5 263/6/5
f 265/5/5 263/5/5 254/5/5
f 265/1/5 264/1/5 263/1/5
f 266/5/5 257/5/5 264/5/5
f 266/1/5 264/1/5 265/1/5
f 267/5/5 265/5/5 254/5/5
f 267/6/5 266/6/5 265/6/5
f 268/5/5 257/5/5 266/5/5
f 268/6/5 266/6/5 267/6/5
f 269/5/5 267/5/5 254/5/5
f 269/1/5 268/1/5 267/1/5
f 270/5/5 257/5/5 268/5/5
f 270/1/5 268/1/5 269/1/5
f 271/5/5 269/5/5 254/5/5
f 271/6/5 270/6/5 269/6/5
f 272/5/5 257/5/5 270/5/5
f 272/6/5 270/6/5 271/6/5
f 273/5/5 271/5/5 254/5/5
f 274/1/5 272/1/5 271/1/5
f 274/5/5 271/5/5 273/5/5
f 275/5/5 257/5/5 272/5/5
f 275/1/5 272/1/5 274/1/5
f 276/5/5 257/5/5 275/5/5
f 277/6/5 275/6/5 274/6/5
f 278/6/5 275/6/5 277/6/5
f 279/1/5 278/1/5 277/1/5
f 280/1/5 278/1/5 279/1/5
f 281/1/6 282/1/6 284/1/6
f 284/1/6 282/1/6 285/1/6
f 283/5/6 284/5/6 287/5/6
f 284/6/6 285/6/6 287/6/6
f 285/5/6 286/5/6 288/5/6
f 287/6/6 285/6/6 288/6/6
f 283/5/6 287/5/6 289/5/6
f 287/1/6 288/1/6 289/1/6
f 288/5/6 286/5/6 290/5/6
f 289/1/6 288/1/6 290/1/6
f 283/5/6 289/5/6 291/5/6
f 289/6/6 290/6/6 291/6/6
f 290/5/6 286/5/6 292/5/6
f 291/6/6 290/6/6 292/6/6
f 283/5/6 291/5/6 293/5/6
f 291/1/6 292/1/6 293/1/6
f 292/5/6 286/5/6 294/5/6
f 293/1/6 292/1/6 294/1/6
f 283/5/6 293/5/6 295/5/6
f 293/6/6 294/6/6 295/6/6
f 294/5/6 286/5/6 296/5/6
f 295/6/6 294/6/6 296/6/6
f 283/5/6 295/5/6 297/5/6
f 295/1/6 296/1/6 297/1/6
f 296/5/6 286/5/6 298/5/6
f 297/1/6 296/1/6 298/1/6
f 283/5/6 297/5/6 299/5/6
f 297/6/6 298/6/6 299/6/6
f 298/5/6 286/5/6 300/5/6
f 299/6/6 298/6/6 300/6/6
f 283/5/6 299/5/6 301/5/6
f 299/1/6 300/1/6 301/1/6
f 300/5/6 286/5/6 302/5/6
f 301/1/6 300/1/6 302/1/6
f 283/5/6 301/5/6 304/5/6
f 301/6/6 302/6/6 305/6/6
f 304/5/6 301/5/6 305/5/6
f 302/5/6 286/5/6 306/5/6
f 305/6/6 302/6/6 306/6/6
f 306/5/6 286/5/6 307/5/6
f 304/5/6 305/5/6 309/5/6
f 303/5/6 304/5/6 309/5/6
f 305/3/6 306/3/6 310/3/6
f 309/5/6 305/5/6 310/5/6
f 307/5/6 308/5/6 311/5/6
f 310/3/6 306/3/6 311/3/6
f 306/5/6 307/5/6 311/5/6
f 311/5/6 308/5/6 312/5/6
f 303/5/6 309/5/6 314/5/6
f 314/5/6 309/5/6 315/5/6
f 315/5/6 309/5/6 316/5/6
f 316/5/6 309/5/6 317/5/6
f 317/5/6 309/5/6 318/5/6
f 318/5/6 309/5/6 319/5/6
f 319/5/6 309/5/6 320/5/6
f 320/5/6 309/5/6 321/5/6
f 321/5/6 309/5/6 322/5/6
f 322/5/6 309/5/6 323/5/6
f 312/5/6 308/5/6 324/5/6
f 324/5/6 308/5/6 325/5/6
f 325/5/6 308/5/6 326/5/6
f 326/5/6 308/5/6 327/5/6
f 327/5/6 308/5/6 328/5/6
f 328/5/6 308/5/6 329/5/6
f 329/5/6 308/5/6 330/5/6
f 330/5/6 308/5/6 331/5/6
f 331/5/6 308/5/6 332/5/6
f 332/5/6 308/5/6 333/5/6
f 313/1/6 314/1/6 335/1/6
f 314/6/6 315/6/6 336/6/6
f 335/1/6 314/1/6 336/1/6
f 315/1/6 316/1/6 337/1/6
f 336/6/6 315/6/6 337/6/6
f 316/6/6 317/6/6 338/6/6
f 337/1/6 316/1/6 338/1/6
f 317/1/6 318/1/6 339/1/6
f 338/6/6 317/6/6 339/6/6
f 318/6/6 319/6/6 340/6/6
f 339/1/6 318/1/6 340/1/6
f 319/1/6 320/1/6 341/1/6
f 340/6/6 319/6/6 341/6/6
f 320/6/6 321/6/6 342/6/6
f 341/1/6 320/1/6 342/1/6
f 321/1/6 322/1/6 343/1/6
f 342/6/6 321/6/6 343/6/6
f 322/3/6 323/3/6 344/3/6
f 343/1/6 322/1/6 344/1/6
f 344/3/6 323/3/6 345/3/6
f 324/3/6 325/3/6 346/3/6
f 325/6/6 326/6/6 347/6/6
f 346/3/6 325/3/6 347/3/6
f 326/1/6 327/1/6 348/1/6
f 347/6/6 326/6/6 348/6/6
f 327/6/6 328/6/6 349/6/6
f 348/1/6 327/1/6 349/1/6
f 328/1/6 329/1/6 350/1/6
f 349/6/6 328/6/6 350/6/6
f 329/6/6 330/6/6 351/6/6
f 350/1/6 329/1/6 351/1/6
f 330/1/6 331/1/6 352/1/6
f 351/6/6 330/6/6 352/6/6
f 331/6/6 332/6/6 353/6/6
f 352/1/6 331/1/6 353/1/6
f 333/1/6 334/1/6 354/1/6
f 353/6/6 332/6/6 354/6/6
f 332/1/6 333/1/6 354/1/6
f 354/1/6 334/1/6 355/1/6
f 355/1/6 334/1/6 356/1/6
f 342/5/6 343/5/6 357/5/6
f 336/5/6 337/5/6 357/5/6
f 337/5/6 338/5/6 357/5/6
f 343/5/6 344/5/6 357/5/6
f 338/5/6 339/5/6 357/5/6
f 339/5/6 340/5/6 357/5/6
f 340/5/6 341/5/6 357/5/6
f 341/5/6 342/5/6 357/5/6
f 344/5/6 345/5/6 357/5/6
f 352/5/6 353/5/6 360/5/6
f 354/5/6 355/5/6 360/5/6
f 353/5/6 354/5/6 360/5/6
f 351/5/6 352/5/6 360/5/6
f 350/5/6 351/5/6 360/5/6
f 346/5/6 347/5/6 360/5/6
f 349/5/6 350/5/6 360/5/6
f 347/5/6 348/5/6 360/5/6
f 348/5/6 349/5/6 360/5/6
f 357/5/6 358/5/6 361/5/6
f 336/5/6 357/5/6 361/5/6
f 361/5/6 358/5/6 362/5/6
f 358/3/6 359/3/6 363/3/6
f 362/5/6 358/5/6 363/5/6
f 359/5/6 360/5/6 364/5/6
f 363/3/6 359/3/6 364/3/6
f 360/5/6 355/5/6 365/5/6
f 364/5/6 360/5/6 365/5/6
f 365/5/6 355/5/6 366/5/6
f 362/5/6 363/5/6 367/5/6
f 363/6/6 364/6/6 367/6/6
f 364/5/6 365/5/6 368/5/6
f 367/6/6 364/6/6 368/6/6
f 362/5/6 367/5/6 369/5/6
f 367/1/6 368/1/6 369/1/6
f 368/5/6 365/5/6 370/5/6
f 369/1/6 368/1/6 370/1/6
f 362/5/6 369/5/6 371/5/6
f 369/6/6 370/6/6 371/6/6
f 370/5/6 365/5/6 372/5/6
f 371/6/6 370/6/6 372/6/6
f 362/5/6 371/5/6 373/5/6
f 371/1/6 372/1/6 373/1/6
f 372/5/6 365/5/6 374/5/6
f 373/1/6 372/1/6 374/1/6
f 362/5/6 373/5/6 375/5/6
f 373/6/6 374/6/6 375/6/6
f 374/5/6 365/5/6 376/5/6
f 375/6/6 374/6/6 376/6/6
f 362/5/6 375/5/6 377/5/6
f 375/1/6 376/1/6 377/1/6
f 376/5/6 365/5/6 378/5/6
f 377/1/6 376/1/6 378/1/6
f 362/5/6 377/5/6 379/5/6
f 377/6/6 378/6/6 379/6/6
f 378/5/6 365/5/6 380/5/6
f 379/6/6 378/6/6 380/6/6
f 362/5/6 379/5/6 381/5/6
f 379/1/6 380/1/6 382/1/6
f 381/5/6 379/5/6 382/5/6
f 380/5/6 365/5/6 383/5/6
f 382/1/6 380/1/6 383/1/6
f 383/5/6 365/5/6 384/5/6
f 382/6/6 383/6/6 385/6/6
f 385/6/6 383/6/6 386/6/6
f 385/1/6 386/1/6 387/1/6
f 387/1/6 386/1/6 388/1/6
f 389/1/6 390/1/6 391/1/6
f 391/1/6 390/1/6 392/1/6
f 389/1/6 391/1/6 393/1/6
f 392/1/6 390/1/6 394/1/6
f 389/1/6 393/1/6 395/1/6
f 393/1/6 394/1/6 395/1/6
f 394/1/6 390/1/6 396/1/6
f 395/1/6 394/1/6 396/1/6
f 397/1/6 398/1/6 399/1/6
f 399/1/6 398/1/6 400/1/6
