# MagicaVoxel @ Ephtracy

# group
o 

# material
mtllib windmill t2.mtl
usemtl palette

# normals
vn -1 0 0
vn 1 0 0
vn 0 0 1
vn 0 0 -1
vn 0 -1 0
vn 0 1 0

# texcoords
vt 0.177734 0.5
vt 0.236328 0.5
vt 0.240234 0.5
vt 0.248047 0.5
vt 0.279297 0.5
vt 0.310547 0.5
vt 0.560547 0.5

# verts
v -8.1 0 9.5
v -8.1 0 2.6
v -8.1 0.1 9.5
v -8.1 0.1 2.6
v -8.1 0.4 9.5
v -8.1 0.4 2.6
v -7.9 0.2 9.4
v -7.9 0.2 3.4
v -7.9 0.4 9.4
v -7.9 0.4 3.4
v -6.7 0.2 3.1
v -6.7 0.2 2.9
v -6.7 0.8 3.3
v -6.7 0.8 3.1
v -6.7 1 3.3
v -6.7 1 2.9
v -5.1 0.2 9.4
v -5.1 0.2 3.3
v -5.1 0.4 9.4
v -5.1 0.4 3.3
v -3.1 0.1 6.9
v -3.1 0.1 3.5
v -3.1 0.2 6.9
v -3.1 0.2 3.5
v -3 0.2 6.8
v -3 0.2 3.6
v -3 0.9 6.8
v -3 0.9 3.6
v -3 1 6.8
v -3 1 3.6
v -2.9 1 6.8
v -2.9 1 3.6
v -2.9 1.1 6.8
v -2.9 1.1 3.6
v -2.7 1.1 6.8
v -2.7 1.1 3.6
v -2.7 1.2 6.8
v -2.7 1.2 3.6
v -2.5 1.2 6.8
v -2.5 1.2 3.6
v -2.5 1.3 6.8
v -2.5 1.3 3.6
v -2.3 1.3 6.8
v -2.3 1.3 3.6
v -2.3 1.4 6.8
v -2.3 1.4 3.6
v -2.1 0.1 9.5
v -2.1 0.1 9.3
v -2.1 0.1 8.9
v -2.1 0.1 8.7
v -2.1 0.1 8.2
v -2.1 0.1 8
v -2.1 0.4 9.5
v -2.1 0.4 9.3
v -2.1 0.6 8.7
v -2.1 0.6 8.2
v -2.1 0.8 8.9
v -2.1 0.8 8
v -2.1 1 8.9
v -2.1 1 8.8
v -2.1 1 8.1
v -2.1 1 8
v -2.1 1.1 8.8
v -2.1 1.1 8.6
v -2.1 1.1 8.3
v -2.1 1.1 8.1
v -2.1 1.2 8.6
v -2.1 1.2 8.3
v -2.1 1.4 6.8
v -2.1 1.4 3.6
v -2.1 1.5 6.8
v -2.1 1.5 3.6
v -1.3 0.1 8.7
v -1.3 0.1 8.2
v -1.3 0.6 8.7
v -1.3 0.6 8.2
v -1 0.2 6.8
v -1 0.2 4.5
v -1 0.8 6.8
v -1 0.8 4.5
v -0.3 0.1 9.3
v -0.3 0.1 2.8
v -0.3 0.4 9.3
v -0.3 0.4 2.8
v -8 0.2 9.5
v -8 0.2 2.8
v -8 0.4 9.5
v -8 0.4 2.8
v -6.5 0.2 3.1
v -6.5 0.2 2.9
v -6.5 0.8 3.3
v -6.5 0.8 3.1
v -6.5 1 3.3
v -6.5 1 2.9
v -6.4 0.2 9.4
v -6.4 0.2 3.4
v -6.4 0.4 9.4
v -6.4 0.4 3.4
v -3.6 0.1 4.2
v -3.6 0.1 2.8
v -3.6 0.2 9.4
v -3.6 0.2 4.2
v -3.6 0.2 3.3
v -3.6 0.2 2.8
v -3.6 0.4 9.4
v -3.6 0.4 3.3
v -3.5 0.1 9.5
v -3.5 0.1 4.2
v -3.5 0.2 9.5
v -3.5 0.2 4.2
v -2.5 0.2 6.8
v -2.5 0.2 4.5
v -2.5 0.8 6.8
v -2.5 0.8 4.5
v -1.5 1.4 6.8
v -1.5 1.4 3.6
v -1.5 1.5 6.8
v -1.5 1.5 3.6
v -1.3 1.3 6.8
v -1.3 1.3 3.6
v -1.3 1.4 6.8
v -1.3 1.4 3.6
v -1.1 1.2 6.8
v -1.1 1.2 3.6
v -1.1 1.3 6.8
v -1.1 1.3 3.6
v -0.9 1.1 6.8
v -0.9 1.1 3.6
v -0.9 1.2 6.8
v -0.9 1.2 3.6
v -0.7 1 6.8
v -0.7 1 3.6
v -0.7 1.1 6.8
v -0.7 1.1 3.6
v -0.6 0.2 6.8
v -0.6 0.2 3.6
v -0.6 0.9 6.8
v -0.6 0.9 3.6
v -0.6 1 6.8
v -0.6 1 3.6
v -0.5 0.1 6.9
v -0.5 0.1 3.5
v -0.5 0.2 6.9
v -0.5 0.2 3.5
v -0.4 0.1 8.9
v -0.4 0.1 8
v -0.4 0.8 8.9
v -0.4 0.8 8
v -0.4 1 8.9
v -0.4 1 8.8
v -0.4 1 8.1
v -0.4 1 8
v -0.4 1.1 8.8
v -0.4 1.1 8.6
v -0.4 1.1 8.3
v -0.4 1.1 8.1
v -0.4 1.2 8.6
v -0.4 1.2 8.3
v -0.0999994 0 9.5
v -0.0999994 0 2.6
v -0.0999994 0.1 9.5
v -0.0999994 0.1 2.6
v -0.0999994 0.4 9.5
v -0.0999994 0.4 2.6
v -8.1 0 9.5
v -8.1 0.1 9.5
v -8.1 0.4 9.5
v -8 0.1 9.5
v -8 0.2 9.5
v -8 0.4 9.5
v -3.5 0.1 9.5
v -3.5 0.2 9.5
v -2.1 0.1 9.5
v -2.1 0.4 9.5
v -0.0999994 0 9.5
v -0.0999994 0.1 9.5
v -0.0999994 0.4 9.5
v -7.9 0.2 9.4
v -7.9 0.4 9.4
v -6.4 0.2 9.4
v -6.4 0.4 9.4
v -5.1 0.2 9.4
v -5.1 0.4 9.4
v -3.6 0.2 9.4
v -3.6 0.4 9.4
v -2.1 0.1 8.9
v -2.1 0.8 8.9
v -2.1 1 8.9
v -0.4 0.1 8.9
v -0.4 0.8 8.9
v -0.4 1 8.9
v -2.1 1 8.8
v -2.1 1.1 8.8
v -0.4 1 8.8
v -0.4 1.1 8.8
v -2.1 1.1 8.6
v -2.1 1.2 8.6
v -0.4 1.1 8.6
v -0.4 1.2 8.6
v -2.1 0.1 8.2
v -2.1 0.6 8.2
v -1.3 0.1 8.2
v -1.3 0.6 8.2
v -3.1 0.1 6.9
v -3.1 0.2 6.9
v -0.5 0.1 6.9
v -0.5 0.2 6.9
v -3 0.2 6.8
v -3 0.9 6.8
v -3 1 6.8
v -2.9 1 6.8
v -2.9 1.1 6.8
v -2.7 1.1 6.8
v -2.7 1.2 6.8
v -2.5 0.2 6.8
v -2.5 0.8 6.8
v -2.5 1.2 6.8
v -2.5 1.3 6.8
v -2.3 1.3 6.8
v -2.3 1.4 6.8
v -2.1 1.4 6.8
v -2.1 1.5 6.8
v -1.5 1.4 6.8
v -1.5 1.5 6.8
v -1.3 1.3 6.8
v -1.3 1.4 6.8
v -1.1 1.2 6.8
v -1.1 1.3 6.8
v -1 0.2 6.8
v -1 0.8 6.8
v -0.9 1.1 6.8
v -0.9 1.2 6.8
v -0.7 1 6.8
v -0.7 1.1 6.8
v -0.6 0.2 6.8
v -0.6 0.9 6.8
v -0.6 1 6.8
v -2.5 0.2 4.5
v -2.5 0.8 4.5
v -1 0.2 4.5
v -1 0.8 4.5
v -6.7 0.8 3.3
v -6.7 1 3.3
v -6.5 0.8 3.3
v -6.5 1 3.3
v -6.7 0.2 3.1
v -6.7 0.8 3.1
v -6.5 0.2 3.1
v -6.5 0.8 3.1
v -8 0.2 2.8
v -8 0.4 2.8
v -3.6 0.1 2.8
v -3.6 0.2 2.8
v -0.3 0.1 2.8
v -0.3 0.4 2.8
v -2.1 0.1 9.3
v -2.1 0.4 9.3
v -0.3 0.1 9.3
v -0.3 0.4 9.3
v -2.1 0.1 8.7
v -2.1 0.6 8.7
v -1.3 0.1 8.7
v -1.3 0.6 8.7
v -2.1 1.1 8.3
v -2.1 1.2 8.3
v -0.4 1.1 8.3
v -0.4 1.2 8.3
v -2.1 1 8.1
v -2.1 1.1 8.1
v -0.4 1 8.1
v -0.4 1.1 8.1
v -2.1 0.1 8
v -2.1 0.8 8
v -2.1 1 8
v -0.4 0.1 8
v -0.4 0.8 8
v -0.4 1 8
v -3.6 0.1 4.2
v -3.6 0.2 4.2
v -3.5 0.1 4.2
v -3.5 0.2 4.2
v -3 0.2 3.6
v -3 0.9 3.6
v -3 1 3.6
v -2.9 1 3.6
v -2.9 1.1 3.6
v -2.7 1.1 3.6
v -2.7 1.2 3.6
v -2.5 1.2 3.6
v -2.5 1.3 3.6
v -2.3 1.3 3.6
v -2.3 1.4 3.6
v -2.1 1.4 3.6
v -2.1 1.5 3.6
v -1.5 1.4 3.6
v -1.5 1.5 3.6
v -1.3 1.3 3.6
v -1.3 1.4 3.6
v -1.1 1.2 3.6
v -1.1 1.3 3.6
v -0.9 1.1 3.6
v -0.9 1.2 3.6
v -0.7 1 3.6
v -0.7 1.1 3.6
v -0.6 0.2 3.6
v -0.6 0.9 3.6
v -0.6 1 3.6
v -3.1 0.1 3.5
v -3.1 0.2 3.5
v -0.5 0.1 3.5
v -0.5 0.2 3.5
v -7.9 0.2 3.4
v -7.9 0.4 3.4
v -6.4 0.2 3.4
v -6.4 0.4 3.4
v -5.1 0.2 3.3
v -5.1 0.4 3.3
v -3.6 0.2 3.3
v -3.6 0.4 3.3
v -6.7 0.2 2.9
v -6.7 1 2.9
v -6.5 0.2 2.9
v -6.5 1 2.9
v -8.1 0 2.6
v -8.1 0.1 2.6
v -8.1 0.4 2.6
v -0.0999994 0 2.6
v -0.0999994 0.1 2.6
v -0.0999994 0.4 2.6
v -8.1 0 9.5
v -0.0999994 0 9.5
v -8.1 0 2.6
v -0.0999994 0 2.6
v -2.1 0.6 8.7
v -1.3 0.6 8.7
v -2.1 0.6 8.2
v -1.3 0.6 8.2
v -2.5 0.8 6.8
v -1 0.8 6.8
v -2.5 0.8 4.5
v -1 0.8 4.5
v -6.7 0.8 3.3
v -6.5 0.8 3.3
v -6.7 0.8 3.1
v -6.5 0.8 3.1
v -3.5 0.1 9.5
v -2.1 0.1 9.5
v -2.1 0.1 9.3
v -0.3 0.1 9.3
v -2.1 0.1 8.9
v -0.4 0.1 8.9
v -2.1 0.1 8.7
v -1.3 0.1 8.7
v -2.1 0.1 8.2
v -1.3 0.1 8.2
v -2.1 0.1 8
v -0.4 0.1 8
v -3.1 0.1 6.9
v -0.5 0.1 6.9
v -3.6 0.1 4.2
v -3.5 0.1 4.2
v -3.1 0.1 3.5
v -0.5 0.1 3.5
v -3.6 0.1 2.8
v -0.3 0.1 2.8
v -8 0.2 9.5
v -3.5 0.2 9.5
v -7.9 0.2 9.4
v -6.4 0.2 9.4
v -5.1 0.2 9.4
v -3.6 0.2 9.4
v -3.1 0.2 6.9
v -0.5 0.2 6.9
v -3 0.2 6.8
v -2.5 0.2 6.8
v -1 0.2 6.8
v -0.6 0.2 6.8
v -2.5 0.2 4.5
v -1 0.2 4.5
v -3.6 0.2 4.2
v -3.5 0.2 4.2
v -3 0.2 3.6
v -0.6 0.2 3.6
v -3.1 0.2 3.5
v -0.5 0.2 3.5
v -7.9 0.2 3.4
v -6.4 0.2 3.4
v -5.1 0.2 3.3
v -3.6 0.2 3.3
v -6.7 0.2 3.1
v -6.5 0.2 3.1
v -6.7 0.2 2.9
v -6.5 0.2 2.9
v -8 0.2 2.8
v -3.6 0.2 2.8
v -8.1 0.4 9.5
v -8 0.4 9.5
v -2.1 0.4 9.5
v -0.0999994 0.4 9.5
v -7.9 0.4 9.4
v -6.4 0.4 9.4
v -5.1 0.4 9.4
v -3.6 0.4 9.4
v -2.1 0.4 9.3
v -0.3 0.4 9.3
v -7.9 0.4 3.4
v -6.4 0.4 3.4
v -5.1 0.4 3.3
v -3.6 0.4 3.3
v -8 0.4 2.8
v -0.3 0.4 2.8
v -8.1 0.4 2.6
v -0.0999994 0.4 2.6
v -2.1 1 8.9
v -0.4 1 8.9
v -2.1 1 8.8
v -0.4 1 8.8
v -2.1 1 8.1
v -0.4 1 8.1
v -2.1 1 8
v -0.4 1 8
v -3 1 6.8
v -2.9 1 6.8
v -0.7 1 6.8
v -0.6 1 6.8
v -3 1 3.6
v -2.9 1 3.6
v -0.7 1 3.6
v -0.6 1 3.6
v -6.7 1 3.3
v -6.5 1 3.3
v -6.7 1 2.9
v -6.5 1 2.9
v -2.1 1.1 8.8
v -0.4 1.1 8.8
v -2.1 1.1 8.6
v -0.4 1.1 8.6
v -2.1 1.1 8.3
v -0.4 1.1 8.3
v -2.1 1.1 8.1
v -0.4 1.1 8.1
v -2.9 1.1 6.8
v -2.7 1.1 6.8
v -0.9 1.1 6.8
v -0.7 1.1 6.8
v -2.9 1.1 3.6
v -2.7 1.1 3.6
v -0.9 1.1 3.6
v -0.7 1.1 3.6
v -2.1 1.2 8.6
v -0.4 1.2 8.6
v -2.1 1.2 8.3
v -0.4 1.2 8.3
v -2.7 1.2 6.8
v -2.5 1.2 6.8
v -1.1 1.2 6.8
v -0.9 1.2 6.8
v -2.7 1.2 3.6
v -2.5 1.2 3.6
v -1.1 1.2 3.6
v -0.9 1.2 3.6
v -2.5 1.3 6.8
v -2.3 1.3 6.8
v -1.3 1.3 6.8
v -1.1 1.3 6.8
v -2.5 1.3 3.6
v -2.3 1.3 3.6
v -1.3 1.3 3.6
v -1.1 1.3 3.6
v -2.3 1.4 6.8
v -2.1 1.4 6.8
v -1.5 1.4 6.8
v -1.3 1.4 6.8
v -2.3 1.4 3.6
v -2.1 1.4 3.6
v -1.5 1.4 3.6
v -1.3 1.4 3.6
v -2.1 1.5 6.8
v -1.5 1.5 6.8
v -2.1 1.5 3.6
v -1.5 1.5 3.6

# faces
f 3/4/1 2/4/1 1/4/1
f 4/4/1 2/4/1 3/4/1
f 5/3/1 4/3/1 3/3/1
f 6/3/1 4/3/1 5/3/1
f 9/7/1 8/7/1 7/7/1
f 10/7/1 8/7/1 9/7/1
f 14/4/1 12/4/1 11/4/1
f 15/4/1 14/4/1 13/4/1
f 16/4/1 12/4/1 14/4/1
f 16/4/1 14/4/1 15/4/1
f 19/7/1 18/7/1 17/7/1
f 20/7/1 18/7/1 19/7/1
f 23/5/1 22/5/1 21/5/1
f 24/5/1 22/5/1 23/5/1
f 27/5/1 26/5/1 25/5/1
f 28/5/1 26/5/1 27/5/1
f 29/2/1 28/2/1 27/2/1
f 30/2/1 28/2/1 29/2/1
f 33/2/1 32/2/1 31/2/1
f 34/2/1 32/2/1 33/2/1
f 37/2/1 36/2/1 35/2/1
f 38/2/1 36/2/1 37/2/1
f 41/2/1 40/2/1 39/2/1
f 42/2/1 40/2/1 41/2/1
f 45/2/1 44/2/1 43/2/1
f 46/2/1 44/2/1 45/2/1
f 53/3/1 48/3/1 47/3/1
f 54/3/1 48/3/1 53/3/1
f 55/5/1 50/5/1 49/5/1
f 56/5/1 52/5/1 51/5/1
f 57/5/1 55/5/1 49/5/1
f 57/5/1 56/5/1 55/5/1
f 58/5/1 52/5/1 56/5/1
f 58/5/1 56/5/1 57/5/1
f 59/1/1 58/1/1 57/1/1
f 60/1/1 58/1/1 59/1/1
f 61/1/1 58/1/1 60/1/1
f 62/1/1 58/1/1 61/1/1
f 63/1/1 61/1/1 60/1/1
f 64/1/1 61/1/1 63/1/1
f 65/1/1 61/1/1 64/1/1
f 66/1/1 61/1/1 65/1/1
f 67/1/1 65/1/1 64/1/1
f 68/1/1 65/1/1 67/1/1
f 71/2/1 70/2/1 69/2/1
f 72/2/1 70/2/1 71/2/1
f 75/5/1 74/5/1 73/5/1
f 76/5/1 74/5/1 75/5/1
f 79/5/1 78/5/1 77/5/1
f 80/5/1 78/5/1 79/5/1
f 83/3/1 82/3/1 81/3/1
f 84/3/1 82/3/1 83/3/1
f 85/3/2 86/3/2 87/3/2
f 87/3/2 86/3/2 88/3/2
f 89/4/2 90/4/2 92/4/2
f 91/4/2 92/4/2 93/4/2
f 92/4/2 90/4/2 94/4/2
f 93/4/2 92/4/2 94/4/2
f 95/7/2 96/7/2 97/7/2
f 97/7/2 96/7/2 98/7/2
f 99/6/2 100/6/2 102/6/2
f 102/6/2 100/6/2 103/6/2
f 103/6/2 100/6/2 104/6/2
f 101/7/2 102/7/2 105/7/2
f 102/7/2 103/7/2 105/7/2
f 105/7/2 103/7/2 106/7/2
f 107/6/2 108/6/2 109/6/2
f 109/6/2 108/6/2 110/6/2
f 111/5/2 112/5/2 113/5/2
f 113/5/2 112/5/2 114/5/2
f 115/2/2 116/2/2 117/2/2
f 117/2/2 116/2/2 118/2/2
f 119/2/2 120/2/2 121/2/2
f 121/2/2 120/2/2 122/2/2
f 123/2/2 124/2/2 125/2/2
f 125/2/2 124/2/2 126/2/2
f 127/2/2 128/2/2 129/2/2
f 129/2/2 128/2/2 130/2/2
f 131/2/2 132/2/2 133/2/2
f 133/2/2 132/2/2 134/2/2
f 135/5/2 136/5/2 137/5/2
f 137/5/2 136/5/2 138/5/2
f 137/2/2 138/2/2 139/2/2
f 139/2/2 138/2/2 140/2/2
f 141/5/2 142/5/2 143/5/2
f 143/5/2 142/5/2 144/5/2
f 145/5/2 146/5/2 147/5/2
f 147/5/2 146/5/2 148/5/2
f 147/1/2 148/1/2 149/1/2
f 149/1/2 148/1/2 150/1/2
f 150/1/2 148/1/2 151/1/2
f 151/1/2 148/1/2 152/1/2
f 150/1/2 151/1/2 153/1/2
f 153/1/2 151/1/2 154/1/2
f 154/1/2 151/1/2 155/1/2
f 155/1/2 151/1/2 156/1/2
f 154/1/2 155/1/2 157/1/2
f 157/1/2 155/1/2 158/1/2
f 159/4/2 160/4/2 161/4/2
f 161/4/2 160/4/2 162/4/2
f 161/3/2 162/3/2 163/3/2
f 163/3/2 162/3/2 164/3/2
f 168/4/3 166/4/3 165/4/3
f 168/3/3 167/3/3 166/3/3
f 169/3/3 167/3/3 168/3/3
f 170/3/3 167/3/3 169/3/3
f 171/4/3 168/4/3 165/4/3
f 171/6/3 169/6/3 168/6/3
f 172/6/3 169/6/3 171/6/3
f 173/4/3 171/4/3 165/4/3
f 175/4/3 173/4/3 165/4/3
f 176/3/3 174/3/3 173/3/3
f 176/4/3 173/4/3 175/4/3
f 177/3/3 174/3/3 176/3/3
f 180/7/3 179/7/3 178/7/3
f 181/7/3 179/7/3 180/7/3
f 184/7/3 183/7/3 182/7/3
f 185/7/3 183/7/3 184/7/3
f 189/5/3 187/5/3 186/5/3
f 190/1/3 188/1/3 187/1/3
f 190/5/3 187/5/3 189/5/3
f 191/1/3 188/1/3 190/1/3
f 194/1/3 193/1/3 192/1/3
f 195/1/3 193/1/3 194/1/3
f 198/1/3 197/1/3 196/1/3
f 199/1/3 197/1/3 198/1/3
f 202/5/3 201/5/3 200/5/3
f 203/5/3 201/5/3 202/5/3
f 206/5/3 205/5/3 204/5/3
f 207/5/3 205/5/3 206/5/3
f 211/2/3 210/2/3 209/2/3
f 213/2/3 212/2/3 211/2/3
f 215/5/3 209/5/3 208/5/3
f 216/5/3 209/5/3 215/5/3
f 217/2/3 214/2/3 213/2/3
f 219/2/3 218/2/3 217/2/3
f 221/2/3 220/2/3 219/2/3
f 223/2/3 221/2/3 219/2/3
f 223/2/3 222/2/3 221/2/3
f 224/2/3 222/2/3 223/2/3
f 225/2/3 219/2/3 217/2/3
f 225/2/3 223/2/3 219/2/3
f 226/2/3 223/2/3 225/2/3
f 227/2/3 217/2/3 213/2/3
f 227/2/3 225/2/3 217/2/3
f 228/2/3 225/2/3 227/2/3
f 230/5/3 209/5/3 216/5/3
f 231/2/3 213/2/3 211/2/3
f 231/2/3 227/2/3 213/2/3
f 232/2/3 227/2/3 231/2/3
f 233/2/3 211/2/3 209/2/3
f 233/2/3 231/2/3 211/2/3
f 234/2/3 231/2/3 233/2/3
f 235/5/3 230/5/3 229/5/3
f 236/5/3 209/5/3 230/5/3
f 236/5/3 230/5/3 235/5/3
f 236/2/3 233/2/3 209/2/3
f 237/2/3 233/2/3 236/2/3
f 240/5/3 239/5/3 238/5/3
f 241/5/3 239/5/3 240/5/3
f 244/4/3 243/4/3 242/4/3
f 245/4/3 243/4/3 244/4/3
f 248/4/3 247/4/3 246/4/3
f 249/4/3 247/4/3 248/4/3
f 253/3/3 251/3/3 250/3/3
f 254/3/3 253/3/3 252/3/3
f 255/3/3 251/3/3 253/3/3
f 255/3/3 253/3/3 254/3/3
f 256/3/4 257/3/4 258/3/4
f 258/3/4 257/3/4 259/3/4
f 260/5/4 261/5/4 262/5/4
f 262/5/4 261/5/4 263/5/4
f 264/1/4 265/1/4 266/1/4
f 266/1/4 265/1/4 267/1/4
f 268/1/4 269/1/4 270/1/4
f 270/1/4 269/1/4 271/1/4
f 272/5/4 273/5/4 275/5/4
f 273/1/4 274/1/4 276/1/4
f 275/5/4 273/5/4 276/5/4
f 276/1/4 274/1/4 277/1/4
f 278/6/4 279/6/4 280/6/4
f 280/6/4 279/6/4 281/6/4
f 283/2/4 284/2/4 285/2/4
f 285/2/4 286/2/4 287/2/4
f 287/2/4 288/2/4 289/2/4
f 289/2/4 290/2/4 291/2/4
f 291/2/4 292/2/4 293/2/4
f 291/2/4 293/2/4 295/2/4
f 293/2/4 294/2/4 295/2/4
f 295/2/4 294/2/4 296/2/4
f 289/2/4 291/2/4 297/2/4
f 291/2/4 295/2/4 297/2/4
f 297/2/4 295/2/4 298/2/4
f 287/2/4 289/2/4 299/2/4
f 289/2/4 297/2/4 299/2/4
f 299/2/4 297/2/4 300/2/4
f 285/2/4 287/2/4 301/2/4
f 287/2/4 299/2/4 301/2/4
f 301/2/4 299/2/4 302/2/4
f 283/2/4 285/2/4 303/2/4
f 285/2/4 301/2/4 303/2/4
f 303/2/4 301/2/4 304/2/4
f 282/5/4 283/5/4 305/5/4
f 283/2/4 303/2/4 306/2/4
f 305/5/4 283/5/4 306/5/4
f 306/2/4 303/2/4 307/2/4
f 308/5/4 309/5/4 310/5/4
f 310/5/4 309/5/4 311/5/4
f 312/7/4 313/7/4 314/7/4
f 314/7/4 313/7/4 315/7/4
f 316/7/4 317/7/4 318/7/4
f 318/7/4 317/7/4 319/7/4
f 320/4/4 321/4/4 322/4/4
f 322/4/4 321/4/4 323/4/4
f 324/4/4 325/4/4 327/4/4
f 325/3/4 326/3/4 328/3/4
f 327/4/4 325/4/4 328/4/4
f 328/3/4 326/3/4 329/3/4
f 332/4/5 331/4/5 330/4/5
f 333/4/5 331/4/5 332/4/5
f 336/5/5 335/5/5 334/5/5
f 337/5/5 335/5/5 336/5/5
f 340/5/5 339/5/5 338/5/5
f 341/5/5 339/5/5 340/5/5
f 344/4/5 343/4/5 342/4/5
f 345/4/5 343/4/5 344/4/5
f 346/4/6 347/4/6 348/4/6
f 346/4/6 348/4/6 350/4/6
f 348/4/6 349/4/6 350/4/6
f 350/4/6 349/4/6 351/4/6
f 346/4/6 350/4/6 352/4/6
f 346/4/6 352/4/6 354/4/6
f 352/4/6 353/4/6 354/4/6
f 354/4/6 353/4/6 355/4/6
f 346/4/6 354/4/6 356/4/6
f 351/4/6 349/4/6 357/4/6
f 346/4/6 356/4/6 358/4/6
f 356/4/6 357/4/6 358/4/6
f 358/4/6 357/4/6 359/4/6
f 346/4/6 358/4/6 361/4/6
f 361/4/6 358/4/6 362/4/6
f 360/4/6 361/4/6 362/4/6
f 359/4/6 357/4/6 363/4/6
f 360/4/6 362/4/6 364/4/6
f 362/4/6 363/4/6 364/4/6
f 357/4/6 349/4/6 365/4/6
f 364/4/6 363/4/6 365/4/6
f 363/4/6 357/4/6 365/4/6
f 366/6/6 367/6/6 368/6/6
f 368/6/6 367/6/6 369/6/6
f 369/6/6 367/6/6 370/6/6
f 370/6/6 367/6/6 371/6/6
f 372/5/6 373/5/6 374/5/6
f 374/5/6 373/5/6 375/5/6
f 375/5/6 373/5/6 376/5/6
f 376/5/6 373/5/6 377/5/6
f 375/5/6 376/5/6 378/5/6
f 378/5/6 376/5/6 379/5/6
f 371/6/6 367/6/6 380/6/6
f 380/6/6 367/6/6 381/6/6
f 372/5/6 374/5/6 382/5/6
f 377/5/6 373/5/6 383/5/6
f 372/5/6 382/5/6 384/5/6
f 382/5/6 383/5/6 384/5/6
f 383/5/6 373/5/6 385/5/6
f 384/5/6 383/5/6 385/5/6
f 366/6/6 368/6/6 386/6/6
f 369/6/6 370/6/6 387/6/6
f 387/6/6 370/6/6 388/6/6
f 386/6/6 387/6/6 388/6/6
f 386/6/6 388/6/6 390/6/6
f 388/6/6 389/6/6 390/6/6
f 390/6/6 389/6/6 391/6/6
f 386/6/6 390/6/6 392/6/6
f 391/6/6 389/6/6 393/6/6
f 366/6/6 386/6/6 394/6/6
f 392/6/6 393/6/6 394/6/6
f 386/6/6 392/6/6 394/6/6
f 393/6/6 389/6/6 395/6/6
f 394/6/6 393/6/6 395/6/6
f 398/3/6 399/3/6 404/3/6
f 404/3/6 399/3/6 405/3/6
f 400/7/6 401/7/6 406/7/6
f 406/7/6 401/7/6 407/7/6
f 402/7/6 403/7/6 408/7/6
f 408/7/6 403/7/6 409/7/6
f 396/3/6 397/3/6 410/3/6
f 405/3/6 399/3/6 411/3/6
f 396/3/6 410/3/6 412/3/6
f 410/3/6 411/3/6 412/3/6
f 411/3/6 399/3/6 413/3/6
f 412/3/6 411/3/6 413/3/6
f 414/1/6 415/1/6 416/1/6
f 416/1/6 415/1/6 417/1/6
f 418/1/6 419/1/6 420/1/6
f 420/1/6 419/1/6 421/1/6
f 422/2/6 423/2/6 426/2/6
f 426/2/6 423/2/6 427/2/6
f 424/2/6 425/2/6 428/2/6
f 428/2/6 425/2/6 429/2/6
f 430/4/6 431/4/6 432/4/6
f 432/4/6 431/4/6 433/4/6
f 434/1/6 435/1/6 436/1/6
f 436/1/6 435/1/6 437/1/6
f 438/1/6 439/1/6 440/1/6
f 440/1/6 439/1/6 441/1/6
f 442/2/6 443/2/6 446/2/6
f 446/2/6 443/2/6 447/2/6
f 444/2/6 445/2/6 448/2/6
f 448/2/6 445/2/6 449/2/6
f 450/1/6 451/1/6 452/1/6
f 452/1/6 451/1/6 453/1/6
f 454/2/6 455/2/6 458/2/6
f 458/2/6 455/2/6 459/2/6
f 456/2/6 457/2/6 460/2/6
f 460/2/6 457/2/6 461/2/6
f 462/2/6 463/2/6 466/2/6
f 466/2/6 463/2/6 467/2/6
f 464/2/6 465/2/6 468/2/6
f 468/2/6 465/2/6 469/2/6
f 470/2/6 471/2/6 474/2/6
f 474/2/6 471/2/6 475/2/6
f 472/2/6 473/2/6 476/2/6
f 476/2/6 473/2/6 477/2/6
f 478/2/6 479/2/6 480/2/6
f 480/2/6 479/2/6 481/2/6
